<svg xmlns="http://www.w3.org/2000/svg" viewBox="550.77 722.70 192.92 168.55" xmlns:c2pa="http://c2pa.org/manifest"><metadata><c2pa:manifest>AAAWgmp1bWIAAAAeanVtZGMycGEAEQAQgAAAqgA4m3EDYzJwYQAAABZcanVtYgAAAEdqdW1kYzJtYQARABCAAACqADibcQN1cm46YzJwYTpiODZiZDU3Zi05MmYxLTQwMDItYWYzNC04ZmM0YjA4ZWU3NjcAAAADl2p1bWIAAAApanVtZGMyYXMAEQAQgAAAqgA4m3EDYzJwYS5hc3NlcnRpb25zAAAAALxqdW1iAAAARGp1bWRjYm9yABEAEIAAAKoAOJtxE2MycGEuaW5ncmVkaWVudC52MwAAAAAYYzJzaPh+eIT8PGyEotv+IdZeTAcAAABwY2JvcqNpZGM6Zm9ybWF0bWltYWdlL3N2Zyt4bWxqaW5zdGFuY2VJRHgseG1wOmlpZDozNjdkNmQ1Yi1kNDlmLTRmY2QtYTNjMi02M2FmZTY2ODQyMjVscmVsYXRpb25zaGlwaHBhcmVudE9mAAAB4mp1bWIAAABBanVtZGNib3IAEQAQgAAAqgA4m3ETYzJwYS5hY3Rpb25zLnYyAAAAABhjMnNosO/JjB6yGVHMnisAAwlVwAAAAZljYm9yomdhY3Rpb25zgqJmYWN0aW9ua2MycGEub3BlbmVkanBhcmFtZXRlcnOha2luZ3JlZGllbnRzgaJjdXJseC1zZWxmI2p1bWJmPWMycGEuYXNzZXJ0aW9ucy9jMnBhLmluZ3JlZGllbnQudjNkaGFzaFgg2MdniaapOMHhCsqNFuCZGZRkxVeKVJ6SNaVsHM2ZXmWkZmFjdGlvbngdY29tLmFudGhyb3BpYy5jbGF1ZGUucHJvdmlkZWRqcGFyYW1ldGVyc6F4H2NvbS5hbnRocm9waWMub3JpZ2luLWNvbmZpZGVuY2VndW5rbm93bmtkZXNjcmlwdGlvbnhmQ2xhdWRlIHByb3ZpZGVkIHRoaXMgZmlsZSBhdCB0aGUgcmVxdWVzdCBvZiBhIHVzZXIgYW5kIG1heSBoYXZlIGNyZWF0ZWQgb3IgbW9kaWZpZWQgdGhlIGZpbGUgY29udGVudHMubXNvZnR3YXJlQWdlbnShZG5hbWVmQ2xhdWRlcmFsbEFjdGlvbnNJbmNsdWRlZPUAAADIanVtYgAAAEBqdW1kY2JvcgARABCAAACqADibcRNjMnBhLmhhc2guZGF0YQAAAAAYYzJzaOODPxH0QQJR3mzN57JpA3gAAACAY2JvcqVjYWxnZnNoYTI1NmNwYWRNAAAAAAAAAAAAAAAAAGRoYXNoWCBuTCeoenajYla+v5HUvIHUda7PHzcm4ygBzBO56pVFwWRuYW1lbmp1bWJmIG1hbmlmZXN0amV4Y2x1c2lvbnOBomVzdGFydBiNZmxlbmd0aBkeBAAAAj5qdW1iAAAAJ2p1bWRjMmNsABEAEIAAAKoAOJtxA2MycGEuY2xhaW0udjIAAAACD2Nib3KlY2FsZ2ZzaGEyNTZpc2lnbmF0dXJleE1zZWxmI2p1bWJmPS9jMnBhL3VybjpjMnBhOmI4NmJkNTdmLTkyZjEtNDAwMi1hZjM0LThmYzRiMDhlZTc2Ny9jMnBhLnNpZ25hdHVyZWppbnN0YW5jZUlEeCx4bXA6aWlkOmEwNzVmYzU1LTQ1MDEtNDBlMi05OGMyLTQ3ZTdhOTg5YzY1ZXJjcmVhdGVkX2Fzc2VydGlvbnODomN1cmx4LXNlbGYjanVtYmY9YzJwYS5hc3NlcnRpb25zL2MycGEuaW5ncmVkaWVudC52M2RoYXNoWCDYx2eJpqk4weEKyo0W4JkZlGTFV4pUnpI1pWwczZleZaJjdXJseCpzZWxmI2p1bWJmPWMycGEuYXNzZXJ0aW9ucy9jMnBhLmFjdGlvbnMudjJkaGFzaFggVCIYpdQUCV8ISCqdhGM/CSo4YSui4G8WPX9KPJBqDoSiY3VybHgpc2VsZiNqdW1iZj1jMnBhLmFzc2VydGlvbnMvYzJwYS5oYXNoLmRhdGFkaGFzaFggVuvqajWl47ASNplHTyU11tDq+CG+8ClQOGhOJGdhF8R0Y2xhaW1fZ2VuZXJhdG9yX2luZm+jZG5hbWVvQW50aHJvcGljIEZpbGVzZ3ZlcnNpb25lMS4wLjBrc3BlY1ZlcnNpb25lMi40LjAAABA4anVtYgAAAChqdW1kYzJjcwARABCAAACqADibcQNjMnBhLnNpZ25hdHVyZQAAABAIY2JvctKEWQISogEmGCFZAgowggIGMIIBjaADAgECAhRA5aAK7sI50L64g/oGQgU9Z1UTADAKBggqhkjOPQQDAzBJMRcwFQYDVQQKEw5BbnRocm9waWMsIFBCQzEuMCwGA1UEAxMlQW50aHJvcGljIENvbnRlbnQgQ3JlZGVudGlhbHMgUm9vdCBDQTAeFw0yNjA4MDcxODQzNTZaFw0yODA4MDYxOTQzNTZaMEQxFzAVBgNVBAoTDkFudGhyb3BpYywgUEJDMSkwJwYDVQQDEyBBbnRocm9waWMgQ2xhdWRlIENvbnRlbnQgU2lnbmluZzBZMBMGByqGSM49AgEGCCqGSM49AwEHA0IABJh6CmvLUBgFFNU0vUKlOVtE6djd17L5SuwX0LemFisBM3dkd/3cyjxFA3Qo5S46fX0/ihY0VZ7mfb9KF703t5OjWDBWMA4GA1UdDwEB/wQEAwIHgDAVBgNVHSUEDjAMBgorBgEEAYPoXgIBMAwGA1UdEwEB/wQCMAAwHwYDVR0jBBgwFoAUzlHiBIFOZFsj+OPEz5o+nMHXXMIwCgYIKoZIzj0EAwMDZwAwZAIwMXMdFJ4BetLLVY7ORuE9noqbbAZOZn/aArXyTwFAZfKrPzxF2vPoJNf1+UCdg1XGAjBwX1zd9WGqYkqmL5SFqw1QySjr1zJfpJM9+1rdDwSPLMOPOjKuiXjoU/pUUeG9RwmhY3BhZFkNngAAAAAAAAAAAAAAAAAAAAAAAAAAAAAAAAAAAAAAAAAAAAAAAAAAAAAAAAAAAAAAAAAAAAAAAAAAAAAAAAAAAAAAAAAAAAAAAAAAAAAAAAAAAAAAAAAAAAAAAAAAAAAAAAAAAAAAAAAAAAAAAAAAAAAAAAAAAAAAAAAAAAAAAAAAAAAAAAAAAAAAAAAAAAAAAAAAAAAAAAAAAAAAAAAAAAAAAAAAAAAAAAAAAAAAAAAAAAAAAAAAAAAAAAAAAAAAAAAAAAAAAAAAAAAAAAAAAAAAAAAAAAAAAAAAAAAAAAAAAAAAAAAAAAAAAAAAAAAAAAAAAAAAAAAAAAAAAAAAAAAAAAAAAAAAAAAAAAAAAAAAAAAAAAAAAAAAAAAAAAAAAAAAAAAAAAAAAAAAAAAAAAAAAAAAAAAAAAAAAAAAAAAAAAAAAAAAAAAAAAAAAAAAAAAAAAAAAAAAAAAAAAAAAAAAAAAAAAAAAAAAAAAAAAAAAAAAAAAAAAAAAAAAAAAAAAAAAAAAAAAAAAAAAAAAAAAAAAAAAAAAAAAAAAAAAAAAAAAAAAAAAAAAAAAAAAAAAAAAAAAAAAAAAAAAAAAAAAAAAAAAAAAAAAAAAAAAAAAAAAAAAAAAAAAAAAAAAAAAAAAAAAAAAAAAAAAAAAAAAAAAAAAAAAAAAAAAAAAAAAAAAAAAAAAAAAAAAAAAAAAAAAAAAAAAAAAAAAAAAAAAAAAAAAAAAAAAAAAAAAAAAAAAAAAAAAAAAAAAAAAAAAAAAAAAAAAAAAAAAAAAAAAAAAAAAAAAAAAAAAAAAAAAAAAAAAAAAAAAAAAAAAAAAAAAAAAAAAAAAAAAAAAAAAAAAAAAAAAAAAAAAAAAAAAAAAAAAAAAAAAAAAAAAAAAAAAAAAAAAAAAAAAAAAAAAAAAAAAAAAAAAAAAAAAAAAAAAAAAAAAAAAAAAAAAAAAAAAAAAAAAAAAAAAAAAAAAAAAAAAAAAAAAAAAAAAAAAAAAAAAAAAAAAAAAAAAAAAAAAAAAAAAAAAAAAAAAAAAAAAAAAAAAAAAAAAAAAAAAAAAAAAAAAAAAAAAAAAAAAAAAAAAAAAAAAAAAAAAAAAAAAAAAAAAAAAAAAAAAAAAAAAAAAAAAAAAAAAAAAAAAAAAAAAAAAAAAAAAAAAAAAAAAAAAAAAAAAAAAAAAAAAAAAAAAAAAAAAAAAAAAAAAAAAAAAAAAAAAAAAAAAAAAAAAAAAAAAAAAAAAAAAAAAAAAAAAAAAAAAAAAAAAAAAAAAAAAAAAAAAAAAAAAAAAAAAAAAAAAAAAAAAAAAAAAAAAAAAAAAAAAAAAAAAAAAAAAAAAAAAAAAAAAAAAAAAAAAAAAAAAAAAAAAAAAAAAAAAAAAAAAAAAAAAAAAAAAAAAAAAAAAAAAAAAAAAAAAAAAAAAAAAAAAAAAAAAAAAAAAAAAAAAAAAAAAAAAAAAAAAAAAAAAAAAAAAAAAAAAAAAAAAAAAAAAAAAAAAAAAAAAAAAAAAAAAAAAAAAAAAAAAAAAAAAAAAAAAAAAAAAAAAAAAAAAAAAAAAAAAAAAAAAAAAAAAAAAAAAAAAAAAAAAAAAAAAAAAAAAAAAAAAAAAAAAAAAAAAAAAAAAAAAAAAAAAAAAAAAAAAAAAAAAAAAAAAAAAAAAAAAAAAAAAAAAAAAAAAAAAAAAAAAAAAAAAAAAAAAAAAAAAAAAAAAAAAAAAAAAAAAAAAAAAAAAAAAAAAAAAAAAAAAAAAAAAAAAAAAAAAAAAAAAAAAAAAAAAAAAAAAAAAAAAAAAAAAAAAAAAAAAAAAAAAAAAAAAAAAAAAAAAAAAAAAAAAAAAAAAAAAAAAAAAAAAAAAAAAAAAAAAAAAAAAAAAAAAAAAAAAAAAAAAAAAAAAAAAAAAAAAAAAAAAAAAAAAAAAAAAAAAAAAAAAAAAAAAAAAAAAAAAAAAAAAAAAAAAAAAAAAAAAAAAAAAAAAAAAAAAAAAAAAAAAAAAAAAAAAAAAAAAAAAAAAAAAAAAAAAAAAAAAAAAAAAAAAAAAAAAAAAAAAAAAAAAAAAAAAAAAAAAAAAAAAAAAAAAAAAAAAAAAAAAAAAAAAAAAAAAAAAAAAAAAAAAAAAAAAAAAAAAAAAAAAAAAAAAAAAAAAAAAAAAAAAAAAAAAAAAAAAAAAAAAAAAAAAAAAAAAAAAAAAAAAAAAAAAAAAAAAAAAAAAAAAAAAAAAAAAAAAAAAAAAAAAAAAAAAAAAAAAAAAAAAAAAAAAAAAAAAAAAAAAAAAAAAAAAAAAAAAAAAAAAAAAAAAAAAAAAAAAAAAAAAAAAAAAAAAAAAAAAAAAAAAAAAAAAAAAAAAAAAAAAAAAAAAAAAAAAAAAAAAAAAAAAAAAAAAAAAAAAAAAAAAAAAAAAAAAAAAAAAAAAAAAAAAAAAAAAAAAAAAAAAAAAAAAAAAAAAAAAAAAAAAAAAAAAAAAAAAAAAAAAAAAAAAAAAAAAAAAAAAAAAAAAAAAAAAAAAAAAAAAAAAAAAAAAAAAAAAAAAAAAAAAAAAAAAAAAAAAAAAAAAAAAAAAAAAAAAAAAAAAAAAAAAAAAAAAAAAAAAAAAAAAAAAAAAAAAAAAAAAAAAAAAAAAAAAAAAAAAAAAAAAAAAAAAAAAAAAAAAAAAAAAAAAAAAAAAAAAAAAAAAAAAAAAAAAAAAAAAAAAAAAAAAAAAAAAAAAAAAAAAAAAAAAAAAAAAAAAAAAAAAAAAAAAAAAAAAAAAAAAAAAAAAAAAAAAAAAAAAAAAAAAAAAAAAAAAAAAAAAAAAAAAAAAAAAAAAAAAAAAAAAAAAAAAAAAAAAAAAAAAAAAAAAAAAAAAAAAAAAAAAAAAAAAAAAAAAAAAAAAAAAAAAAAAAAAAAAAAAAAAAAAAAAAAAAAAAAAAAAAAAAAAAAAAAAAAAAAAAAAAAAAAAAAAAAAAAAAAAAAAAAAAAAAAAAAAAAAAAAAAAAAAAAAAAAAAAAAAAAAAAAAAAAAAAAAAAAAAAAAAAAAAAAAAAAAAAAAAAAAAAAAAAAAAAAAAAAAAAAAAAAAAAAAAAAAAAAAAAAAAAAAAAAAAAAAAAAAAAAAAAAAAAAAAAAAAAAAAAAAAAAAAAAAAAAAAAAAAAAAAAAAAAAAAAAAAAAAAAAAAAAAAAAAAAAAAAAAAAAAAAAAAAAAAAAAAAAAAAAAAAAAAAAAAAAAAAAAAAAAAAAAAAAAAAAAAAAAAAAAAAAAAAAAAAAAAAAAAAAAAAAAAAAAAAAAAAAAAAAAAAAAAAAAAAAAAAAAAAAAAAAAAAAAAAAAAAAAAAAAAAAAAAAAAAAAAAAAAAAAAAAAAAAAAAAAAAAAAAAAAAAAAAAAAAAAAAAAAAAAAAAAAAAAAAAAAAAAAAAAAAAAAAAAAAAAAAAAAAAAAAAAAAAAAAAAAAAAAAAAAAAAAAAAAAAAAAAAAAAAAAAAAAAAAAAAAAAAAAAAAAAAAAAAAAAAAAAAAAAAAAAAAAAAAAAAAAAAAAAAAAAAAAAAAAAAAAAAAAAAAAAAAAAAAAAAAAAAAAAAAAAAAAAAAAAAAAAAAAAAAAAAAAAAAAAAAAAAAAAAAAAAAAAAAAAAAAAAAAAAAAAAAAAAAAAAAAAAAAAAAAAAAAAAAAAAAAAAAAAAAAAAAAAAAAAAAAAAAAAAAAAAAAAAAAAAAAAAAAAAAAAAAAAAAAAAAAAAAAAAAAAAAAAAAAAAAAAAAAAAAAAAAAAAAAAAAAAAAAAAAAAAAAAAAAAAAAAAAAAAAAAAAAAAAAAAAAAAAAAAAAAAAAAAAAAAAAAAAAAAAAAAAAAAAAAAAAAAAAAAAAAAAAAAAAAAAAAAAAAAAAAAAAAAAAAAAAAAAAAAAAAAAAAAAAAAAAAAAAAAAAAAAAAAAAAAAAAAAAAAAAAAAAAAAAAAAAAAAAAAAAAAAAAAAAAAAAAAAAAAAAAAAAAAAAAAAAAAAAAAAAAAAAAAAAAAAAAAAAAAAAAAAAAAAAAAAAAAAAAAAAAAAAAAAAAAAAAAAAAAAAAAAAAAAAAAAAAAAAAAAAAAAAAAAAAAAAAAAAAAAAAAAAAAAAAAAAAAAAAAAAAAAAAAAAAAAAAAAAAAAAAAAAAAAAAAAAAAAAAAAAAAAAAAAAAAAAAAAAAAAAAAAAAAAAAAAAAAAAAAAAAAAAAAAAAAAAAAAAAAAAAAAAAAAAAAAAAAAAAAAAAAAAAAAAAAAAAAAAAAAAAAAAAAAAAAAAAAAAAAAAAAAAAAAAAAAAAAAAAAAAAAAAAAAAAAAAAAAAAAAAAAAAAAAAAAAAAAAAAAAAAAAAAAAAAAAAAAAAAAAAAAAAAAAAAAAAAAAAAAAAAAAAAAAAAAAAAAAAAAAAAAAAAAAAAAAAAAAAAAAAAAAAAAAAAAAAAAAAAAAAAAAAAAAAAAAAAAAAAAAAAAAAAAAAAAAAAAAAAAAAAAAAAAAAAAAAAAAAAAAAAAAAAAAAAAAAAAAAAAAAAAAAAAAAAAAAAAAAAAAAAAAAAAAAAAAAAAAAAAAAAAAAAAAAAAAAAAAAAAAAAAAAAAAAAAAAAAAAAAAAAAAAAAAAAAAAAAAAAAAAAAAAAAAAAAAAAAAAAAAAAAAAAAAAAAAAAAAAAAAAAAAAAAAAAAAAAAAAAAPZYQOCuT7Uje1g+wLC5kkfUOnYjCi60XMIOrOexiuV0xLxs9ZrOgSgxwtH8nkeZBIul74gswI0TPt0SdY8tC/xkd6I=</c2pa:manifest></metadata>
  <path fill-rule="evenodd" fill="#FFFFFF" d="M 723.609375 814.808594 L 706.691406 846.789062 C 703.921875 852.027344 699.390625 856.207031 693.941406 858.527344 L 662.21875 872.097656 C 661.988281 872.199219 661.738281 872.246094 661.488281 872.246094 C 660.988281 872.246094 660.488281 872.039062 660.128906 871.648438 C 659.601562 871.078125 659.488281 870.226562 659.851562 869.539062 L 676.621094 837.816406 C 679.488281 832.398438 684.171875 828.085938 689.820312 825.675781 L 721.238281 812.238281 C 721.46875 812.136719 721.71875 812.085938 721.96875 812.085938 C 722.46875 812.085938 722.96875 812.296875 723.328125 812.6875 C 723.859375 813.257812 723.96875 814.109375 723.609375 814.808594 M 651.308594 815.546875 C 651.308594 810.90625 654.078125 806.707031 658.351562 804.878906 L 684.449219 793.71875 C 686.679688 792.769531 689.140625 794.398438 689.140625 796.808594 L 689.140625 804.246094 C 689.140625 805.707031 690.640625 806.6875 691.980469 806.117188 L 713.890625 796.746094 C 716.289062 795.726562 718.960938 797.488281 718.960938 800.097656 L 718.960938 802.117188 C 718.960938 803.175781 718.328125 804.128906 717.359375 804.539062 L 684.53125 818.578125 C 678.289062 821.246094 673.148438 825.976562 669.980469 831.976562 L 651.308594 867.296875 Z M 641.578125 791.277344 L 600.289062 773.628906 L 600.289062 789.726562 C 600.289062 791.777344 598.628906 793.4375 596.578125 793.4375 C 594.53125 793.4375 592.871094 791.777344 592.871094 789.726562 L 592.871094 768.335938 C 592.871094 768.257812 592.871094 768.175781 592.878906 768.097656 C 592.449219 765.90625 593.441406 763.457031 595.851562 762.425781 L 641.578125 742.867188 C 645.199219 741.316406 649.289062 741.316406 652.910156 742.867188 L 698.628906 762.425781 C 702.730469 764.175781 702.730469 769.976562 698.628906 771.726562 L 652.910156 791.277344 C 649.289062 792.828125 645.199219 792.828125 641.578125 791.277344 M 643.160156 867.296875 L 624.480469 831.976562 C 621.308594 825.976562 616.171875 821.246094 609.929688 818.578125 L 577.101562 804.539062 C 576.128906 804.128906 575.511719 803.175781 575.511719 802.117188 L 575.511719 800.097656 C 575.511719 797.488281 578.179688 795.726562 580.578125 796.746094 L 602.488281 806.117188 C 603.828125 806.6875 605.320312 805.707031 605.320312 804.246094 L 605.320312 796.808594 C 605.320312 794.398438 607.789062 792.769531 610.011719 793.71875 L 636.109375 804.878906 C 640.390625 806.707031 643.160156 810.90625 643.160156 815.546875 Z M 634.328125 871.648438 C 633.980469 872.039062 633.480469 872.246094 632.96875 872.246094 C 632.730469 872.246094 632.480469 872.199219 632.25 872.097656 L 600.53125 858.527344 C 595.078125 856.207031 590.550781 852.027344 587.769531 846.789062 L 570.859375 814.808594 C 570.5 814.109375 570.609375 813.257812 571.140625 812.6875 C 571.5 812.296875 571.988281 812.085938 572.5 812.085938 C 572.75 812.085938 572.988281 812.136719 573.230469 812.238281 L 604.648438 825.675781 C 610.289062 828.085938 614.980469 832.398438 617.839844 837.816406 L 634.609375 869.539062 C 634.980469 870.226562 634.871094 871.078125 634.328125 871.648438 M 729.929688 806.566406 C 729.261719 805.847656 728.488281 805.238281 727.660156 804.726562 C 727.859375 803.878906 727.960938 803.007812 727.960938 802.117188 L 727.960938 800.097656 C 727.960938 793.128906 722.289062 787.457031 715.320312 787.457031 C 713.609375 787.457031 711.941406 787.796875 710.351562 788.476562 L 697.789062 793.847656 C 696.800781 789.835938 693.851562 786.597656 690.03125 785.199219 L 702.171875 779.996094 C 707.351562 777.789062 710.699219 772.71875 710.710938 767.078125 C 710.710938 761.4375 707.359375 756.367188 702.171875 754.148438 L 656.449219 734.585938 C 653.519531 733.335938 650.429688 732.699219 647.238281 732.699219 C 644.058594 732.699219 640.960938 733.335938 638.039062 734.585938 L 592.308594 754.148438 C 587.128906 756.367188 583.78125 761.4375 583.78125 767.078125 C 583.78125 767.566406 583.820312 768.046875 583.871094 768.527344 L 583.871094 788.386719 C 582.351562 787.777344 580.769531 787.457031 579.148438 787.457031 C 572.179688 787.457031 566.511719 793.128906 566.511719 800.097656 L 566.511719 802.117188 C 566.511719 803.007812 566.609375 803.886719 566.800781 804.726562 C 565.96875 805.246094 565.199219 805.859375 564.511719 806.597656 C 561.429688 809.949219 560.769531 814.90625 562.910156 819.007812 L 579.820312 850.996094 C 583.550781 858.058594 589.648438 863.667969 596.988281 866.808594 C 596.988281 866.808594 628.851562 880.4375 628.921875 880.457031 C 629.871094 880.847656 630.851562 881.085938 631.851562 881.1875 C 632.21875 881.226562 632.589844 881.246094 632.96875 881.246094 L 661.488281 881.246094 C 661.648438 881.246094 661.808594 881.246094 661.980469 881.238281 C 663.191406 881.1875 664.378906 880.925781 665.539062 880.46875 C 665.609375 880.4375 697.46875 866.808594 697.46875 866.808594 C 704.808594 863.667969 710.910156 858.058594 714.648438 850.996094 L 731.589844 818.957031 C 733.691406 814.90625 733.03125 809.949219 729.929688 806.566406 "/>
  <path fill="#FFFFFF" d="M 632.96875 881.246094 L 631.851562 881.246094 L 631.851562 881.1875 C 632.21875 881.226562 632.589844 881.246094 632.96875 881.246094 "/>
  <path fill="#FFFFFF" d="M 661.980469 881.238281 L 661.980469 881.246094 L 661.488281 881.246094 C 661.648438 881.246094 661.808594 881.246094 661.980469 881.238281 "/>
</svg>
